<mxfile host="app.diagrams.net" modified="2020-05-31T08:16:55.621Z" agent="5.0 (Macintosh; Intel Mac OS X 10_15_4) AppleWebKit/537.36 (KHTML, like Gecko) Chrome/81.0.4044.138 Safari/537.36" etag="lNzFmJ3xreMyVi4i8gH1" version="13.1.2" type="github">
  <diagram id="6a731a19-8d31-9384-78a2-239565b7b9f0" name="Page-1">
    <mxGraphModel dx="2115" dy="591" grid="1" gridSize="10" guides="1" tooltips="1" connect="1" arrows="1" fold="1" page="1" pageScale="1" pageWidth="1169" pageHeight="827" background="#ffffff" math="0" shadow="0">
      <root>
        <mxCell id="0" />
        <mxCell id="1" parent="0" />
        <mxCell id="jYELH4C4g1qa1Q49d2Bn-1" value="" style="group;fillColor=#fff2cc;strokeColor=#7EA6E0;" vertex="1" connectable="0" parent="1">
          <mxGeometry x="120" y="320" width="300" height="40" as="geometry" />
        </mxCell>
        <mxCell id="jYELH4C4g1qa1Q49d2Bn-9" value="" style="group;fillColor=#fff2cc;strokeColor=#7EA6E0;" vertex="1" connectable="0" parent="1">
          <mxGeometry x="-180" y="320" width="750" height="40" as="geometry" />
        </mxCell>
        <mxCell id="Mnyc61CYcTs_VfRObphj-1831" value="" style="group;fillColor=#fff2cc;strokeColor=#7EA6E0;" parent="jYELH4C4g1qa1Q49d2Bn-9" vertex="1" connectable="0">
          <mxGeometry width="300" height="40" as="geometry" />
        </mxCell>
        <mxCell id="Mnyc61CYcTs_VfRObphj-1832" value="src" style="rounded=1;whiteSpace=wrap;html=1;shadow=0;labelBackgroundColor=none;strokeColor=#7EA6E0;strokeWidth=3;fillColor=#fff2cc;fontFamily=Helvetica;fontSize=14;align=center;spacing=5;arcSize=7;perimeterSpacing=2;fontStyle=1" parent="Mnyc61CYcTs_VfRObphj-1831" vertex="1">
          <mxGeometry width="150" height="40" as="geometry" />
        </mxCell>
        <mxCell id="Mnyc61CYcTs_VfRObphj-1833" value="dst" style="rounded=1;whiteSpace=wrap;html=1;shadow=0;labelBackgroundColor=none;strokeColor=#7EA6E0;strokeWidth=3;fillColor=#fff2cc;fontFamily=Helvetica;fontSize=14;align=center;spacing=5;arcSize=7;perimeterSpacing=2;fontStyle=1" parent="Mnyc61CYcTs_VfRObphj-1831" vertex="1">
          <mxGeometry x="150" width="150" height="40" as="geometry" />
        </mxCell>
        <mxCell id="jYELH4C4g1qa1Q49d2Bn-2" value="sport" style="rounded=1;whiteSpace=wrap;html=1;shadow=0;labelBackgroundColor=none;strokeColor=#7EA6E0;strokeWidth=3;fillColor=#fff2cc;fontFamily=Helvetica;fontSize=14;align=center;spacing=5;arcSize=7;perimeterSpacing=2;fontStyle=1" vertex="1" parent="jYELH4C4g1qa1Q49d2Bn-9">
          <mxGeometry x="300" width="150" height="40" as="geometry" />
        </mxCell>
        <mxCell id="jYELH4C4g1qa1Q49d2Bn-3" value="dport" style="rounded=1;whiteSpace=wrap;html=1;shadow=0;labelBackgroundColor=none;strokeColor=#7EA6E0;strokeWidth=3;fillColor=#fff2cc;fontFamily=Helvetica;fontSize=14;align=center;spacing=5;arcSize=7;perimeterSpacing=2;fontStyle=1" vertex="1" parent="jYELH4C4g1qa1Q49d2Bn-9">
          <mxGeometry x="450" width="150" height="40" as="geometry" />
        </mxCell>
        <mxCell id="jYELH4C4g1qa1Q49d2Bn-7" value="proto" style="rounded=1;whiteSpace=wrap;html=1;shadow=0;labelBackgroundColor=none;strokeColor=#7EA6E0;strokeWidth=3;fillColor=#fff2cc;fontFamily=Helvetica;fontSize=14;align=center;spacing=5;arcSize=7;perimeterSpacing=2;fontStyle=1" vertex="1" parent="jYELH4C4g1qa1Q49d2Bn-9">
          <mxGeometry x="600" width="150" height="40" as="geometry" />
        </mxCell>
        <mxCell id="jYELH4C4g1qa1Q49d2Bn-10" value="" style="group;fillColor=#f8cecc;strokeColor=#7EA6E0;" vertex="1" connectable="0" parent="1">
          <mxGeometry x="-180" y="360" width="750" height="40" as="geometry" />
        </mxCell>
        <mxCell id="jYELH4C4g1qa1Q49d2Bn-11" value="" style="group;fillColor=#f8cecc;strokeColor=#7EA6E0;" vertex="1" connectable="0" parent="jYELH4C4g1qa1Q49d2Bn-10">
          <mxGeometry width="300" height="40" as="geometry" />
        </mxCell>
        <mxCell id="jYELH4C4g1qa1Q49d2Bn-12" value="192.168.4.1" style="rounded=1;whiteSpace=wrap;html=1;shadow=0;labelBackgroundColor=none;strokeColor=#7EA6E0;strokeWidth=3;fillColor=#f8cecc;fontFamily=Helvetica;fontSize=14;align=center;spacing=5;arcSize=7;perimeterSpacing=2;fontStyle=1" vertex="1" parent="jYELH4C4g1qa1Q49d2Bn-11">
          <mxGeometry width="150" height="40" as="geometry" />
        </mxCell>
        <mxCell id="jYELH4C4g1qa1Q49d2Bn-13" value="192.168.4.100" style="rounded=1;whiteSpace=wrap;html=1;shadow=0;labelBackgroundColor=none;strokeColor=#7EA6E0;strokeWidth=3;fillColor=#f8cecc;fontFamily=Helvetica;fontSize=14;align=center;spacing=5;arcSize=7;perimeterSpacing=2;fontStyle=1" vertex="1" parent="jYELH4C4g1qa1Q49d2Bn-11">
          <mxGeometry x="150" width="150" height="40" as="geometry" />
        </mxCell>
        <mxCell id="jYELH4C4g1qa1Q49d2Bn-14" value="1000" style="rounded=1;whiteSpace=wrap;html=1;shadow=0;labelBackgroundColor=none;strokeColor=#7EA6E0;strokeWidth=3;fillColor=#f8cecc;fontFamily=Helvetica;fontSize=14;align=center;spacing=5;arcSize=7;perimeterSpacing=2;fontStyle=1" vertex="1" parent="jYELH4C4g1qa1Q49d2Bn-10">
          <mxGeometry x="300" width="150" height="40" as="geometry" />
        </mxCell>
        <mxCell id="jYELH4C4g1qa1Q49d2Bn-15" value="53" style="rounded=1;whiteSpace=wrap;html=1;shadow=0;labelBackgroundColor=none;strokeColor=#7EA6E0;strokeWidth=3;fillColor=#f8cecc;fontFamily=Helvetica;fontSize=14;align=center;spacing=5;arcSize=7;perimeterSpacing=2;fontStyle=1" vertex="1" parent="jYELH4C4g1qa1Q49d2Bn-10">
          <mxGeometry x="450" width="150" height="40" as="geometry" />
        </mxCell>
        <mxCell id="jYELH4C4g1qa1Q49d2Bn-16" value="17" style="rounded=1;whiteSpace=wrap;html=1;shadow=0;labelBackgroundColor=none;strokeColor=#7EA6E0;strokeWidth=3;fillColor=#f8cecc;fontFamily=Helvetica;fontSize=14;align=center;spacing=5;arcSize=7;perimeterSpacing=2;fontStyle=1" vertex="1" parent="jYELH4C4g1qa1Q49d2Bn-10">
          <mxGeometry x="600" width="150" height="40" as="geometry" />
        </mxCell>
        <mxCell id="jYELH4C4g1qa1Q49d2Bn-17" value="" style="group;fillColor=#f8cecc;strokeColor=#7EA6E0;" vertex="1" connectable="0" parent="1">
          <mxGeometry x="-180" y="400" width="750" height="40" as="geometry" />
        </mxCell>
        <mxCell id="jYELH4C4g1qa1Q49d2Bn-18" value="" style="group;fillColor=#f8cecc;strokeColor=#7EA6E0;" vertex="1" connectable="0" parent="jYELH4C4g1qa1Q49d2Bn-17">
          <mxGeometry width="300" height="40" as="geometry" />
        </mxCell>
        <mxCell id="jYELH4C4g1qa1Q49d2Bn-19" value="0x110" style="rounded=1;whiteSpace=wrap;html=1;shadow=0;labelBackgroundColor=none;strokeColor=#7EA6E0;strokeWidth=3;fillColor=#f8cecc;fontFamily=Helvetica;fontSize=14;align=center;spacing=5;arcSize=7;perimeterSpacing=2;fontStyle=1" vertex="1" parent="jYELH4C4g1qa1Q49d2Bn-18">
          <mxGeometry width="150" height="40" as="geometry" />
        </mxCell>
        <mxCell id="jYELH4C4g1qa1Q49d2Bn-20" value="NULL" style="rounded=1;whiteSpace=wrap;html=1;shadow=0;labelBackgroundColor=none;strokeColor=#7EA6E0;strokeWidth=3;fillColor=#f8cecc;fontFamily=Helvetica;fontSize=14;align=center;spacing=5;arcSize=7;perimeterSpacing=2;fontStyle=1" vertex="1" parent="jYELH4C4g1qa1Q49d2Bn-18">
          <mxGeometry x="150" width="150" height="40" as="geometry" />
        </mxCell>
        <mxCell id="jYELH4C4g1qa1Q49d2Bn-21" value="NULL" style="rounded=1;whiteSpace=wrap;html=1;shadow=0;labelBackgroundColor=none;strokeColor=#7EA6E0;strokeWidth=3;fillColor=#f8cecc;fontFamily=Helvetica;fontSize=14;align=center;spacing=5;arcSize=7;perimeterSpacing=2;fontStyle=1" vertex="1" parent="jYELH4C4g1qa1Q49d2Bn-17">
          <mxGeometry x="300" width="150" height="40" as="geometry" />
        </mxCell>
        <mxCell id="jYELH4C4g1qa1Q49d2Bn-22" value="0x111" style="rounded=1;whiteSpace=wrap;html=1;shadow=0;labelBackgroundColor=none;strokeColor=#7EA6E0;strokeWidth=3;fillColor=#f8cecc;fontFamily=Helvetica;fontSize=14;align=center;spacing=5;arcSize=7;perimeterSpacing=2;fontStyle=1" vertex="1" parent="jYELH4C4g1qa1Q49d2Bn-17">
          <mxGeometry x="450" width="150" height="40" as="geometry" />
        </mxCell>
        <mxCell id="jYELH4C4g1qa1Q49d2Bn-23" value="0x101" style="rounded=1;whiteSpace=wrap;html=1;shadow=0;labelBackgroundColor=none;strokeColor=#7EA6E0;strokeWidth=3;fillColor=#f8cecc;fontFamily=Helvetica;fontSize=14;align=center;spacing=5;arcSize=7;perimeterSpacing=2;fontStyle=1" vertex="1" parent="jYELH4C4g1qa1Q49d2Bn-17">
          <mxGeometry x="600" width="150" height="40" as="geometry" />
        </mxCell>
        <mxCell id="jYELH4C4g1qa1Q49d2Bn-38" value="" style="group;fillColor=#d5e8d4;strokeColor=#7EA6E0;" vertex="1" connectable="0" parent="1">
          <mxGeometry x="-180" y="440" width="750" height="40" as="geometry" />
        </mxCell>
        <mxCell id="jYELH4C4g1qa1Q49d2Bn-39" value="" style="group;fillColor=#d5e8d4;strokeColor=#7EA6E0;" vertex="1" connectable="0" parent="jYELH4C4g1qa1Q49d2Bn-38">
          <mxGeometry width="300" height="40" as="geometry" />
        </mxCell>
        <mxCell id="jYELH4C4g1qa1Q49d2Bn-40" value="192.168.4.1" style="rounded=1;whiteSpace=wrap;html=1;shadow=0;labelBackgroundColor=none;strokeColor=#7EA6E0;strokeWidth=3;fillColor=#d5e8d4;fontFamily=Helvetica;fontSize=14;align=center;spacing=5;arcSize=7;perimeterSpacing=2;fontStyle=1" vertex="1" parent="jYELH4C4g1qa1Q49d2Bn-39">
          <mxGeometry width="150" height="40" as="geometry" />
        </mxCell>
        <mxCell id="jYELH4C4g1qa1Q49d2Bn-41" value="192.168.4.100" style="rounded=1;whiteSpace=wrap;html=1;shadow=0;labelBackgroundColor=none;strokeColor=#7EA6E0;strokeWidth=3;fillColor=#d5e8d4;fontFamily=Helvetica;fontSize=14;align=center;spacing=5;arcSize=7;perimeterSpacing=2;fontStyle=1" vertex="1" parent="jYELH4C4g1qa1Q49d2Bn-39">
          <mxGeometry x="150" width="150" height="40" as="geometry" />
        </mxCell>
        <mxCell id="jYELH4C4g1qa1Q49d2Bn-42" value="1000" style="rounded=1;whiteSpace=wrap;html=1;shadow=0;labelBackgroundColor=none;strokeColor=#7EA6E0;strokeWidth=3;fillColor=#d5e8d4;fontFamily=Helvetica;fontSize=14;align=center;spacing=5;arcSize=7;perimeterSpacing=2;fontStyle=1" vertex="1" parent="jYELH4C4g1qa1Q49d2Bn-38">
          <mxGeometry x="300" width="150" height="40" as="geometry" />
        </mxCell>
        <mxCell id="jYELH4C4g1qa1Q49d2Bn-43" value="53" style="rounded=1;whiteSpace=wrap;html=1;shadow=0;labelBackgroundColor=none;strokeColor=#7EA6E0;strokeWidth=3;fillColor=#d5e8d4;fontFamily=Helvetica;fontSize=14;align=center;spacing=5;arcSize=7;perimeterSpacing=2;fontStyle=1" vertex="1" parent="jYELH4C4g1qa1Q49d2Bn-38">
          <mxGeometry x="450" width="150" height="40" as="geometry" />
        </mxCell>
        <mxCell id="jYELH4C4g1qa1Q49d2Bn-44" value="6" style="rounded=1;whiteSpace=wrap;html=1;shadow=0;labelBackgroundColor=none;strokeColor=#7EA6E0;strokeWidth=3;fillColor=#d5e8d4;fontFamily=Helvetica;fontSize=14;align=center;spacing=5;arcSize=7;perimeterSpacing=2;fontStyle=1" vertex="1" parent="jYELH4C4g1qa1Q49d2Bn-38">
          <mxGeometry x="600" width="150" height="40" as="geometry" />
        </mxCell>
        <mxCell id="jYELH4C4g1qa1Q49d2Bn-45" value="" style="group;fillColor=#d5e8d4;strokeColor=#7EA6E0;" vertex="1" connectable="0" parent="1">
          <mxGeometry x="-180" y="480" width="750" height="40" as="geometry" />
        </mxCell>
        <mxCell id="jYELH4C4g1qa1Q49d2Bn-46" value="" style="group;fillColor=#d5e8d4;strokeColor=#7EA6E0;" vertex="1" connectable="0" parent="jYELH4C4g1qa1Q49d2Bn-45">
          <mxGeometry width="300" height="40" as="geometry" />
        </mxCell>
        <mxCell id="jYELH4C4g1qa1Q49d2Bn-47" value="0x110" style="rounded=1;whiteSpace=wrap;html=1;shadow=0;labelBackgroundColor=none;strokeColor=#7EA6E0;strokeWidth=3;fillColor=#d5e8d4;fontFamily=Helvetica;fontSize=14;align=center;spacing=5;arcSize=7;perimeterSpacing=2;fontStyle=1" vertex="1" parent="jYELH4C4g1qa1Q49d2Bn-46">
          <mxGeometry width="150" height="40" as="geometry" />
        </mxCell>
        <mxCell id="jYELH4C4g1qa1Q49d2Bn-48" value="NULL" style="rounded=1;whiteSpace=wrap;html=1;shadow=0;labelBackgroundColor=none;strokeColor=#7EA6E0;strokeWidth=3;fillColor=#d5e8d4;fontFamily=Helvetica;fontSize=14;align=center;spacing=5;arcSize=7;perimeterSpacing=2;fontStyle=1" vertex="1" parent="jYELH4C4g1qa1Q49d2Bn-46">
          <mxGeometry x="150" width="150" height="40" as="geometry" />
        </mxCell>
        <mxCell id="jYELH4C4g1qa1Q49d2Bn-49" value="NULL" style="rounded=1;whiteSpace=wrap;html=1;shadow=0;labelBackgroundColor=none;strokeColor=#7EA6E0;strokeWidth=3;fillColor=#d5e8d4;fontFamily=Helvetica;fontSize=14;align=center;spacing=5;arcSize=7;perimeterSpacing=2;fontStyle=1" vertex="1" parent="jYELH4C4g1qa1Q49d2Bn-45">
          <mxGeometry x="300" width="150" height="40" as="geometry" />
        </mxCell>
        <mxCell id="jYELH4C4g1qa1Q49d2Bn-50" value="0x111" style="rounded=1;whiteSpace=wrap;html=1;shadow=0;labelBackgroundColor=none;strokeColor=#7EA6E0;strokeWidth=3;fillColor=#d5e8d4;fontFamily=Helvetica;fontSize=14;align=center;spacing=5;arcSize=7;perimeterSpacing=2;fontStyle=1" vertex="1" parent="jYELH4C4g1qa1Q49d2Bn-45">
          <mxGeometry x="450" width="150" height="40" as="geometry" />
        </mxCell>
        <mxCell id="jYELH4C4g1qa1Q49d2Bn-51" value="0x11" style="rounded=1;whiteSpace=wrap;html=1;shadow=0;labelBackgroundColor=none;strokeColor=#7EA6E0;strokeWidth=3;fillColor=#d5e8d4;fontFamily=Helvetica;fontSize=14;align=center;spacing=5;arcSize=7;perimeterSpacing=2;fontStyle=1" vertex="1" parent="jYELH4C4g1qa1Q49d2Bn-45">
          <mxGeometry x="600" width="150" height="40" as="geometry" />
        </mxCell>
        <mxCell id="jYELH4C4g1qa1Q49d2Bn-52" value="" style="group;fillColor=#e1d5e7;strokeColor=#7EA6E0;" vertex="1" connectable="0" parent="1">
          <mxGeometry x="-180" y="520" width="750" height="40" as="geometry" />
        </mxCell>
        <mxCell id="jYELH4C4g1qa1Q49d2Bn-53" value="" style="group;fillColor=#e1d5e7;strokeColor=#7EA6E0;" vertex="1" connectable="0" parent="jYELH4C4g1qa1Q49d2Bn-52">
          <mxGeometry width="300" height="40" as="geometry" />
        </mxCell>
        <mxCell id="jYELH4C4g1qa1Q49d2Bn-54" value="192.168.3.1" style="rounded=1;whiteSpace=wrap;html=1;shadow=0;labelBackgroundColor=none;strokeColor=#7EA6E0;strokeWidth=3;fillColor=#e1d5e7;fontFamily=Helvetica;fontSize=14;align=center;spacing=5;arcSize=7;perimeterSpacing=2;fontStyle=1" vertex="1" parent="jYELH4C4g1qa1Q49d2Bn-53">
          <mxGeometry width="150" height="40" as="geometry" />
        </mxCell>
        <mxCell id="jYELH4C4g1qa1Q49d2Bn-55" value="192.168.4.100" style="rounded=1;whiteSpace=wrap;html=1;shadow=0;labelBackgroundColor=none;strokeColor=#7EA6E0;strokeWidth=3;fillColor=#e1d5e7;fontFamily=Helvetica;fontSize=14;align=center;spacing=5;arcSize=7;perimeterSpacing=2;fontStyle=1" vertex="1" parent="jYELH4C4g1qa1Q49d2Bn-53">
          <mxGeometry x="150" width="150" height="40" as="geometry" />
        </mxCell>
        <mxCell id="jYELH4C4g1qa1Q49d2Bn-56" value="1000" style="rounded=1;whiteSpace=wrap;html=1;shadow=0;labelBackgroundColor=none;strokeColor=#7EA6E0;strokeWidth=3;fillColor=#e1d5e7;fontFamily=Helvetica;fontSize=14;align=center;spacing=5;arcSize=7;perimeterSpacing=2;fontStyle=1" vertex="1" parent="jYELH4C4g1qa1Q49d2Bn-52">
          <mxGeometry x="300" width="150" height="40" as="geometry" />
        </mxCell>
        <mxCell id="jYELH4C4g1qa1Q49d2Bn-57" value="53" style="rounded=1;whiteSpace=wrap;html=1;shadow=0;labelBackgroundColor=none;strokeColor=#7EA6E0;strokeWidth=3;fillColor=#e1d5e7;fontFamily=Helvetica;fontSize=14;align=center;spacing=5;arcSize=7;perimeterSpacing=2;fontStyle=1" vertex="1" parent="jYELH4C4g1qa1Q49d2Bn-52">
          <mxGeometry x="450" width="150" height="40" as="geometry" />
        </mxCell>
        <mxCell id="jYELH4C4g1qa1Q49d2Bn-58" value="17" style="rounded=1;whiteSpace=wrap;html=1;shadow=0;labelBackgroundColor=none;strokeColor=#7EA6E0;strokeWidth=3;fillColor=#e1d5e7;fontFamily=Helvetica;fontSize=14;align=center;spacing=5;arcSize=7;perimeterSpacing=2;fontStyle=1" vertex="1" parent="jYELH4C4g1qa1Q49d2Bn-52">
          <mxGeometry x="600" width="150" height="40" as="geometry" />
        </mxCell>
        <mxCell id="jYELH4C4g1qa1Q49d2Bn-59" value="" style="group;fillColor=#e1d5e7;strokeColor=#7EA6E0;" vertex="1" connectable="0" parent="1">
          <mxGeometry x="-180" y="560" width="750" height="40" as="geometry" />
        </mxCell>
        <mxCell id="jYELH4C4g1qa1Q49d2Bn-60" value="" style="group;fillColor=#e1d5e7;strokeColor=#7EA6E0;" vertex="1" connectable="0" parent="jYELH4C4g1qa1Q49d2Bn-59">
          <mxGeometry width="300" height="40" as="geometry" />
        </mxCell>
        <mxCell id="jYELH4C4g1qa1Q49d2Bn-61" value="0x111" style="rounded=1;whiteSpace=wrap;html=1;shadow=0;labelBackgroundColor=none;strokeColor=#7EA6E0;strokeWidth=3;fillColor=#e1d5e7;fontFamily=Helvetica;fontSize=14;align=center;spacing=5;arcSize=7;perimeterSpacing=2;fontStyle=1" vertex="1" parent="jYELH4C4g1qa1Q49d2Bn-60">
          <mxGeometry width="150" height="40" as="geometry" />
        </mxCell>
        <mxCell id="jYELH4C4g1qa1Q49d2Bn-62" value="NULL" style="rounded=1;whiteSpace=wrap;html=1;shadow=0;labelBackgroundColor=none;strokeColor=#7EA6E0;strokeWidth=3;fillColor=#e1d5e7;fontFamily=Helvetica;fontSize=14;align=center;spacing=5;arcSize=7;perimeterSpacing=2;fontStyle=1" vertex="1" parent="jYELH4C4g1qa1Q49d2Bn-60">
          <mxGeometry x="150" width="150" height="40" as="geometry" />
        </mxCell>
        <mxCell id="jYELH4C4g1qa1Q49d2Bn-63" value="NULL" style="rounded=1;whiteSpace=wrap;html=1;shadow=0;labelBackgroundColor=none;strokeColor=#7EA6E0;strokeWidth=3;fillColor=#e1d5e7;fontFamily=Helvetica;fontSize=14;align=center;spacing=5;arcSize=7;perimeterSpacing=2;fontStyle=1" vertex="1" parent="jYELH4C4g1qa1Q49d2Bn-59">
          <mxGeometry x="300" width="150" height="40" as="geometry" />
        </mxCell>
        <mxCell id="jYELH4C4g1qa1Q49d2Bn-64" value="0x111" style="rounded=1;whiteSpace=wrap;html=1;shadow=0;labelBackgroundColor=none;strokeColor=#7EA6E0;strokeWidth=3;fillColor=#e1d5e7;fontFamily=Helvetica;fontSize=14;align=center;spacing=5;arcSize=7;perimeterSpacing=2;fontStyle=1" vertex="1" parent="jYELH4C4g1qa1Q49d2Bn-59">
          <mxGeometry x="450" width="150" height="40" as="geometry" />
        </mxCell>
        <mxCell id="jYELH4C4g1qa1Q49d2Bn-65" value="0x101" style="rounded=1;whiteSpace=wrap;html=1;shadow=0;labelBackgroundColor=none;strokeColor=#7EA6E0;strokeWidth=3;fillColor=#e1d5e7;fontFamily=Helvetica;fontSize=14;align=center;spacing=5;arcSize=7;perimeterSpacing=2;fontStyle=1" vertex="1" parent="jYELH4C4g1qa1Q49d2Bn-59">
          <mxGeometry x="600" width="150" height="40" as="geometry" />
        </mxCell>
        <mxCell id="jYELH4C4g1qa1Q49d2Bn-73" value="bitmap" style="rounded=1;whiteSpace=wrap;html=1;shadow=0;labelBackgroundColor=none;strokeColor=#7EA6E0;strokeWidth=3;fillColor=#fff2cc;fontFamily=Helvetica;fontSize=14;align=center;spacing=5;arcSize=7;perimeterSpacing=2;fontStyle=1" vertex="1" parent="1">
          <mxGeometry x="570" y="320" width="150" height="40" as="geometry" />
        </mxCell>
        <mxCell id="jYELH4C4g1qa1Q49d2Bn-74" value="0x100" style="rounded=1;whiteSpace=wrap;html=1;shadow=0;labelBackgroundColor=none;strokeColor=#7EA6E0;strokeWidth=3;fillColor=#f8cecc;fontFamily=Helvetica;fontSize=14;align=center;spacing=5;arcSize=7;perimeterSpacing=2;fontStyle=1" vertex="1" parent="1">
          <mxGeometry x="570" y="400" width="150" height="40" as="geometry" />
        </mxCell>
        <mxCell id="jYELH4C4g1qa1Q49d2Bn-75" value="-" style="rounded=1;whiteSpace=wrap;html=1;shadow=0;labelBackgroundColor=none;strokeColor=#7EA6E0;strokeWidth=3;fillColor=#f8cecc;fontFamily=Helvetica;fontSize=14;align=center;spacing=5;arcSize=7;perimeterSpacing=2;fontStyle=1" vertex="1" parent="1">
          <mxGeometry x="570" y="360" width="150" height="40" as="geometry" />
        </mxCell>
        <mxCell id="jYELH4C4g1qa1Q49d2Bn-76" value="-" style="rounded=1;whiteSpace=wrap;html=1;shadow=0;labelBackgroundColor=none;strokeColor=#7EA6E0;strokeWidth=3;fillColor=#d5e8d4;fontFamily=Helvetica;fontSize=14;align=center;spacing=5;arcSize=7;perimeterSpacing=2;fontStyle=1" vertex="1" parent="1">
          <mxGeometry x="570" y="440" width="150" height="40" as="geometry" />
        </mxCell>
        <mxCell id="jYELH4C4g1qa1Q49d2Bn-77" value="0x10" style="rounded=1;whiteSpace=wrap;html=1;shadow=0;labelBackgroundColor=none;strokeColor=#7EA6E0;strokeWidth=3;fillColor=#d5e8d4;fontFamily=Helvetica;fontSize=14;align=center;spacing=5;arcSize=7;perimeterSpacing=2;fontStyle=1" vertex="1" parent="1">
          <mxGeometry x="570" y="480" width="150" height="40" as="geometry" />
        </mxCell>
        <mxCell id="jYELH4C4g1qa1Q49d2Bn-78" value="-" style="rounded=1;whiteSpace=wrap;html=1;shadow=0;labelBackgroundColor=none;strokeColor=#7EA6E0;strokeWidth=3;fillColor=#e1d5e7;fontFamily=Helvetica;fontSize=14;align=center;spacing=5;arcSize=7;perimeterSpacing=2;fontStyle=1" vertex="1" parent="1">
          <mxGeometry x="570" y="520" width="150" height="40" as="geometry" />
        </mxCell>
        <mxCell id="jYELH4C4g1qa1Q49d2Bn-79" value="0x101" style="rounded=1;whiteSpace=wrap;html=1;shadow=0;labelBackgroundColor=none;strokeColor=#7EA6E0;strokeWidth=3;fillColor=#e1d5e7;fontFamily=Helvetica;fontSize=14;align=center;spacing=5;arcSize=7;perimeterSpacing=2;fontStyle=1" vertex="1" parent="1">
          <mxGeometry x="570" y="560" width="150" height="40" as="geometry" />
        </mxCell>
      </root>
    </mxGraphModel>
  </diagram>
</mxfile>
